<svg width="20" height="21" viewBox="0 0 20 21" fill="none" xmlns="http://www.w3.org/2000/svg">
<path fill-rule="evenodd" clip-rule="evenodd" d="M14.6021 6.56332V7.8411C16.0374 8.28912 17.0832 9.58843 17.0832 11.1403V15.2544C17.0832 17.1756 15.4904 18.7333 13.5267 18.7333H6.47384C4.5093 18.7333 2.9165 17.1756 2.9165 15.2544V11.1403C2.9165 9.58843 3.96313 8.28912 5.39758 7.8411V6.56332C5.40604 4.07897 7.46373 2.06665 9.98714 2.06665C12.5444 2.06665 14.6021 4.07897 14.6021 6.56332ZM10.0041 3.51585C11.723 3.51585 13.1202 4.88225 13.1202 6.56332V7.6614H6.87944V6.54676C6.88791 4.87396 8.2851 3.51585 10.0041 3.51585ZM10.7408 14.1124C10.7408 14.5182 10.4105 14.8412 9.9956 14.8412C9.58915 14.8412 9.2589 14.5182 9.2589 14.1124V12.274C9.2589 11.8765 9.58915 11.5535 9.9956 11.5535C10.4105 11.5535 10.7408 11.8765 10.7408 12.274V14.1124Z" fill="#704B8D"/>
</svg>
